<svg xmlns="http://www.w3.org/2000/svg" width="640" height="640" viewBox="0 0 640 640">
  <defs>
    <linearGradient id="core" x1="0" y1="0" x2="1" y2="1">
      <stop offset="0%" stop-color="#2df3d5"/>
      <stop offset="100%" stop-color="#ff7a59"/>
    </linearGradient>
    <radialGradient id="halo" cx="50%" cy="50%" r="55%">
      <stop offset="0%" stop-color="rgba(45,243,213,0.4)"/>
      <stop offset="70%" stop-color="rgba(45,243,213,0)"/>
    </radialGradient>
  </defs>
  <rect width="640" height="640" fill="none"/>
  <g opacity="0.4" stroke="rgba(255,255,255,0.08)" stroke-width="1">
    <circle cx="320" cy="320" r="260" fill="none"/>
    <circle cx="320" cy="320" r="200" fill="none"/>
    <circle cx="320" cy="320" r="140" fill="none"/>
    <circle cx="320" cy="320" r="80" fill="none"/>
  </g>
  <g opacity="0.3" stroke="rgba(255,255,255,0.1)" stroke-width="1">
    <path d="M120 160 H520"/>
    <path d="M120 320 H520"/>
    <path d="M120 480 H520"/>
    <path d="M160 120 V520"/>
    <path d="M320 120 V520"/>
    <path d="M480 120 V520"/>
  </g>
  <circle cx="320" cy="320" r="210" fill="url(#halo)"/>
  <g stroke="rgba(255,255,255,0.18)" stroke-width="2" fill="none">
    <path d="M200 230 L440 230 L500 320 L440 410 L200 410 L140 320 Z"/>
    <path d="M240 260 L400 260 L450 320 L400 380 L240 380 L190 320 Z"/>
  </g>
  <circle cx="320" cy="320" r="48" fill="url(#core)"/>
  <g stroke="url(#core)" stroke-width="3" fill="none" opacity="0.8">
    <path d="M320 90 L320 200"/>
    <path d="M320 440 L320 550"/>
    <path d="M90 320 L200 320"/>
    <path d="M440 320 L550 320"/>
  </g>
  <g fill="rgba(255,255,255,0.6)">
    <circle cx="140" cy="200" r="4"/>
    <circle cx="520" cy="240" r="3"/>
    <circle cx="470" cy="460" r="4"/>
    <circle cx="180" cy="470" r="3"/>
  </g>
</svg>
